<svg xmlns="http://www.w3.org/2000/svg" viewBox="0 0 64 64"><circle cx="32" cy="32" r="30" fill="#1a1205"/><path d="M32 4a28 28 0 0 1 24.2 42.1l-5.2-3A22 22 0 0 0 32 10z" fill="#f7931a" opacity="0.55"/><circle cx="32" cy="32" r="21" fill="#f7931a"/><path d="M27 20h6.2c3.4 0 5.8 1.8 5.8 4.7 0 2.1-1.2 3.6-2.9 4.2 2.3.5 3.9 2.2 3.9 4.7 0 3.2-2.6 5.2-6.3 5.2H27zm3.4 3v5h2.8c1.7 0 2.8-1 2.8-2.5S34.9 23 33.2 23zm0 7.8v5.9h3.3c1.9 0 3-1.1 3-3s-1.2-2.9-3.1-2.9zM29.5 17h2.3v3h-2.3zm4.6 0h2.3v3h-2.3zM29.5 44v-3h2.3v3zm4.6 0v-3h2.3v3z" fill="#1a1205"/></svg>
